<?xml version="1.0" encoding="UTF-8"?>
<!DOCTYPE svg PUBLIC "-//W3C//DTD SVG 1.1//EN" "http://www.w3.org/Graphics/SVG/1.1/DTD/svg11.dtd">
<svg xmlns="http://www.w3.org/2000/svg" version="1.1" width="1080px" height="300px" style="shape-rendering:geometricPrecision; text-rendering:geometricPrecision; image-rendering:optimizeQuality; fill-rule:evenodd; clip-rule:evenodd" xmlns:xlink="http://www.w3.org/1999/xlink">
<g><path style="opacity:0.983" fill="#5ce1e5" d="M 74.5,148.5 C 52.1667,148.5 29.8333,148.5 7.5,148.5C 10.0272,89.5007 37.6939,47.0007 90.5,21C 108.317,13.046 126.983,9.21269 146.5,9.5C 146.5,31.8333 146.5,54.1667 146.5,76.5C 109.181,79.6525 85.6807,99.3192 76,135.5C 75.2646,139.813 74.7646,144.147 74.5,148.5 Z"/></g>
<g><path style="opacity:0.979" fill="#fefffe" d="M 199.5,148.5 C 164.833,148.5 130.167,148.5 95.5,148.5C 96.4542,125.047 107.788,108.881 129.5,100C 162.504,91.7513 185.337,103.251 198,134.5C 199.122,139.102 199.622,143.768 199.5,148.5 Z"/></g>
<g><path style="opacity:0.951" fill="#5ce1e5" d="M 960.5,120.5 C 969.167,120.5 977.833,120.5 986.5,120.5C 986.333,145.169 986.5,169.836 987,194.5C 997.5,181.333 1008,168.167 1018.5,155C 1029.85,154.168 1041.18,154.334 1052.5,155.5C 1038.35,172.148 1024.02,188.648 1009.5,205C 1023.98,221.649 1038.65,238.149 1053.5,254.5C 1042.18,255.666 1030.85,255.832 1019.5,255C 1008.67,241.5 997.833,228 987,214.5C 986.5,228.163 986.333,241.829 986.5,255.5C 977.833,255.5 969.167,255.5 960.5,255.5C 960.5,210.5 960.5,165.5 960.5,120.5 Z"/></g>
<g><path style="opacity:0.957" fill="#fefffe" d="M 314.5,128.5 C 333.836,128.333 353.17,128.5 372.5,129C 400.616,135.052 411.782,152.219 406,180.5C 401.24,192.927 392.406,200.76 379.5,204C 389.878,220.586 399.878,237.419 409.5,254.5C 399.517,255.666 389.517,255.832 379.5,255C 370.373,239.248 361.373,223.415 352.5,207.5C 348.555,206.509 344.555,206.176 340.5,206.5C 340.5,222.833 340.5,239.167 340.5,255.5C 331.833,255.5 323.167,255.5 314.5,255.5C 314.5,213.167 314.5,170.833 314.5,128.5 Z M 340.5,150.5 C 350.898,150.101 361.232,150.601 371.5,152C 377.881,155.428 380.881,160.761 380.5,168C 380.859,176.302 377.192,181.969 369.5,185C 359.884,186.324 350.217,186.824 340.5,186.5C 340.5,174.5 340.5,162.5 340.5,150.5 Z"/></g>
<g><path style="opacity:0.961" fill="#5ce1e5" d="M 621.5,128.5 C 642.169,128.333 662.836,128.5 683.5,129C 707.22,132.958 717.387,146.791 714,170.5C 710.925,179.909 704.759,186.409 695.5,190C 709.647,194.933 717.314,204.933 718.5,220C 717.945,235.776 710.278,246.442 695.5,252C 689.327,253.932 682.994,254.932 676.5,255C 658.17,255.5 639.836,255.667 621.5,255.5C 621.5,213.167 621.5,170.833 621.5,128.5 Z M 647.5,149.5 C 657.898,149.101 668.232,149.601 678.5,151C 688.183,156.048 690.683,163.548 686,173.5C 684.062,176.106 681.562,177.939 678.5,179C 668.223,180.37 657.889,180.87 647.5,180.5C 647.5,170.167 647.5,159.833 647.5,149.5 Z M 647.5,200.5 C 658.564,200.094 669.564,200.594 680.5,202C 691.09,207.436 693.924,215.603 689,226.5C 687.062,229.106 684.562,230.939 681.5,232C 670.23,233.409 658.896,233.909 647.5,233.5C 647.5,222.5 647.5,211.5 647.5,200.5 Z"/></g>
<g><path style="opacity:0.983" fill="#fefffe" d="M 7.5,148.5 C 29.8333,148.5 52.1667,148.5 74.5,148.5C 76.4517,187.244 96.1184,211.744 133.5,222C 165.671,226.66 191.171,215.826 210,189.5C 217.598,176.875 221.431,163.208 221.5,148.5C 243.833,148.5 266.167,148.5 288.5,148.5C 286.96,208.771 259.294,252.271 205.5,279C 142.538,302.714 87.7042,290.547 41,242.5C 18.2853,215.381 7.11868,184.047 7.5,148.5 Z"/></g>
<g><path style="opacity:0.98" fill="#5ce1e5" d="M 95.5,148.5 C 130.167,148.5 164.833,148.5 199.5,148.5C 198.714,176.574 184.714,194.074 157.5,201C 127.873,204.278 107.707,192.112 97,164.5C 95.809,159.233 95.309,153.899 95.5,148.5 Z"/></g>
<g><path style="opacity:0.948" fill="#fefffe" d="M 460.5,152.5 C 500.903,152.236 519.57,172.236 516.5,212.5C 492.167,212.5 467.833,212.5 443.5,212.5C 447.181,230.176 457.848,237.01 475.5,233C 480.116,230.718 483.783,227.384 486.5,223C 495.827,222.5 505.161,222.334 514.5,222.5C 510.392,236.546 501.726,246.713 488.5,253C 465.415,260.853 445.248,256.353 428,239.5C 414.22,218.126 413.22,196.126 425,173.5C 433.767,161.216 445.601,154.216 460.5,152.5 Z M 461.5,174.5 C 471.872,173.232 480.372,176.565 487,184.5C 488.759,187.608 489.592,190.941 489.5,194.5C 474.5,194.5 459.5,194.5 444.5,194.5C 445.89,184.115 451.557,177.449 461.5,174.5 Z"/></g>
<g><path style="opacity:0.946" fill="#fefffe" d="M 559.5,152.5 C 576.043,150.414 589.876,155.414 601,167.5C 604.856,173.257 606.689,179.591 606.5,186.5C 598.167,186.5 589.833,186.5 581.5,186.5C 580.436,179.601 576.436,175.435 569.5,174C 563.198,172.783 557.698,174.283 553,178.5C 551.123,182.555 551.956,186.055 555.5,189C 568.092,193.531 580.759,197.864 593.5,202C 608.493,212.503 611.659,226.003 603,242.5C 596.128,250.02 587.628,254.52 577.5,256C 559.458,258.984 543.958,254.151 531,241.5C 526.551,235.938 524.384,229.604 524.5,222.5C 533.167,222.5 541.833,222.5 550.5,222.5C 551.569,229.404 555.569,233.57 562.5,235C 569.564,236.745 575.731,235.245 581,230.5C 583.601,225.498 582.434,221.665 577.5,219C 565.119,215.155 552.786,211.155 540.5,207C 528.822,200.134 524.322,189.967 527,176.5C 529.771,166.127 536.271,159.294 546.5,156C 550.86,154.417 555.194,153.25 559.5,152.5 Z"/></g>
<g><path style="opacity:0.959" fill="#5ce1e5" d="M 764.5,152.5 C 779.722,150.839 792.556,155.506 803,166.5C 803.499,162.514 803.666,158.514 803.5,154.5C 812.167,154.5 820.833,154.5 829.5,154.5C 829.5,188.167 829.5,221.833 829.5,255.5C 820.833,255.5 812.167,255.5 803.5,255.5C 803.666,251.154 803.499,246.821 803,242.5C 788.581,256.976 771.747,260.476 752.5,253C 741.212,247.711 733.379,239.211 729,227.5C 721.672,206.084 724.339,186.084 737,167.5C 744.705,159.586 753.872,154.586 764.5,152.5 Z M 774.5,175.5 C 792.725,176.892 802.392,186.726 803.5,205C 801.805,226.377 790.472,235.377 769.5,232C 754.355,223.868 748.855,211.368 753,194.5C 756.948,184.377 764.115,178.044 774.5,175.5 Z"/></g>
<g><path style="opacity:0.957" fill="#5ce1e5" d="M 899.5,152.5 C 924.763,151.692 939.263,163.692 943,188.5C 943.5,210.831 943.667,233.164 943.5,255.5C 934.833,255.5 926.167,255.5 917.5,255.5C 917.944,233.788 917.444,212.122 916,190.5C 911.365,178.262 902.532,173.428 889.5,176C 882.427,178.072 877.594,182.572 875,189.5C 873.555,211.455 873.055,233.455 873.5,255.5C 864.833,255.5 856.167,255.5 847.5,255.5C 847.5,221.833 847.5,188.167 847.5,154.5C 856.167,154.5 864.833,154.5 873.5,154.5C 873.335,158.182 873.501,161.848 874,165.5C 880.821,157.839 889.321,153.506 899.5,152.5 Z"/></g>
</svg>
